HIERARCHY
ROOT Hips
{
  OFFSET 0 0 0
  CHANNELS 6 Xposition Yposition Zposition Zrotation Yrotation Xrotation
  JOINT LeftThigh
  {
    OFFSET 8.409438 0 -5.917753
    CHANNELS 3 Zrotation Yrotation Xrotation
    JOINT LeftLeg
    {
      OFFSET 0 0 -42.358652
      CHANNELS 3 Zrotation Yrotation Xrotation
      JOINT LeftFoot
      {
        OFFSET 0 0 -39.357303
        CHANNELS 3 Zrotation Yrotation Xrotation
      }
    }
  }
  JOINT RightThigh
  {
    OFFSET -8.409438 0 -5.917753
    CHANNELS 3 Zrotation Yrotation Xrotation
    JOINT RightLeg
    {
      OFFSET 0 0 -42.358652
      CHANNELS 3 Zrotation Yrotation Xrotation
      JOINT RightFoot
      {
        OFFSET 0 0 -39.357303
        CHANNELS 3 Zrotation Yrotation Xrotation
      }
    }
  }
  JOINT SpineLow
  {
    OFFSET 0 0 4.719101
    CHANNELS 3 Zrotation Yrotation Xrotation
    JOINT SpineMid
    {
      OFFSET 0 0 12.899191
      CHANNELS 3 Zrotation Yrotation Xrotation
      JOINT Chest
      {
        OFFSET 0 0 12.899191
        CHANNELS 3 Zrotation Yrotation Xrotation
        JOINT LeftShoulder
        {
          OFFSET 7.550562 1.41573 9.438202
          CHANNELS 3 Zrotation Yrotation Xrotation
          JOINT LeftArm
          {
            OFFSET 9.155056 0 4.247191
            CHANNELS 3 Zrotation Yrotation Xrotation
            JOINT LeftForearm
            {
              OFFSET 0 0 25.771955
              CHANNELS 3 Zrotation Yrotation Xrotation
              JOINT LeftHand
              {
                OFFSET 0 0 25.197169
                CHANNELS 3 Zrotation Yrotation Xrotation
              }
            }
          }
        }
        JOINT RightShoulder
        {
          OFFSET -7.550562 1.41573 9.438202
          CHANNELS 3 Zrotation Yrotation Xrotation
          JOINT RightArm
          {
            OFFSET -9.155056 0 4.247191
            CHANNELS 3 Zrotation Yrotation Xrotation
            JOINT RightForearm
            {
              OFFSET 0 0 -25.771955
              CHANNELS 3 Zrotation Yrotation Xrotation
              JOINT RightHand
              {
                OFFSET 0 0 -25.197169
                CHANNELS 3 Zrotation Yrotation Xrotation
              }
            }
          }
        }
        JOINT Neck
        {
          OFFSET 0 0 15.101124
          CHANNELS 3 Zrotation Yrotation Xrotation
          JOINT Head
          {
            OFFSET 0 0 11.325843
            CHANNELS 3 Zrotation Yrotation Xrotation
            End Site
            {
              OFFSET 0 0 14.157303
            }
          }
        }
      }
    }
  }
}
MOTION
Frames: 11
Frame Time: 0.0
0.0  93.25843  0.0  -2.231855  42.109914  -93.526472  17.263005  -17.016816  11.483118  -6.461105  1.225708  11.224433  6.213871  1.862705  1.160798  -8.858926  -2.224065  -26.731326  -1.114485  16.160608  28.952987  -3.900865  -0.002902  3.26952  -0.428075  -0.225111  1.657105  -1.184916  -0.585642  4.533462  -1.184916  -0.585642  4.533462  -13.695649  21.355539  10.672421  136.937574  47.355209  -160.420482  -24.20316  -8.431621  78.117802  50.510293  -12.254142  17.953995  8.936362  -10.69482  13.154065  31.864051  78.422375  -19.28263  -48.084344  -30.42421  -76.580749  70.035446  7.40744  -9.437314  -19.825029  2.563877  9.313535  -14.909465  1.623087  7.076081  
0.0  93.25843  0.0  -2.297623  41.642822  -93.74155  17.856889  -17.28487  11.877333  -6.427422  0.956884  10.902343  6.04356  2.030954  1.073265  -9.33755  -2.616221  -26.564357  -2.588666  16.698869  28.520913  -3.798673  0.155115  3.215305  -0.334473  -0.238203  1.618901  -0.929744  -0.628372  4.428424  -0.929744  -0.628372  4.428424  -13.436468  21.42357  10.733367  136.61148  47.537204  -160.877264  -24.407792  -8.10977  77.670901  50.918458  -12.137453  18.034307  9.109752  -10.6218  13.169986  33.679711  78.122798  -17.115929  -47.974123  -30.202877  -76.93547  70.043476  7.183978  -9.516508  -19.969135  2.5705  9.557074  -15.018888  1.617935  7.259884  
0.0  93.25843  0.0  -2.290114  40.901242  -93.884178  18.522777  -17.310965  12.315698  -6.562361  0.55119  10.412951  6.036525  2.218354  1.073163  -10.006715  -3.197743  -26.515814  -4.208254  17.818504  28.104267  -3.023227  0.089706  3.176016  -0.245545  -0.226409  1.572104  -0.685578  -0.602603  4.299548  -0.685578  -0.602603  4.299548  -12.985199  21.398092  10.823441  135.396136  48.129578  -161.391649  -25.32651  -8.039253  76.462795  51.212982  -12.054753  17.977803  9.669764  -10.682977  13.396897  35.323989  77.907378  -14.821723  -47.906933  -30.351774  -77.463714  69.992355  7.00116  -9.642441  -20.021835  2.553171  9.770775  -15.059275  1.597103  7.420056  
0.0  93.25843  0.0  -2.278724  39.881273  -94.065172  19.43354  -17.357956  12.965429  -6.536755  0.102229  9.835542  6.043442  2.334422  1.071863  -10.88792  -3.942191  -26.45891  -5.250435  18.832823  27.825034  -2.048953  -0.024234  3.241657  -0.098667  -0.2208  1.552641  -0.283747  -0.596914  4.244989  -0.283747  -0.596914  4.244989  -12.887415  21.360143  10.722208  135.99117  48.351477  -161.371641  -25.146989  -7.804927  75.972028  51.549701  -11.948789  17.628716  9.705885  -10.657112  13.458333  36.840143  77.512265  -13.15736  -47.598947  -30.547208  -77.961111  70.01728  6.859635  -9.680639  -20.109196  2.527181  9.871585  -15.124952  1.572879  7.495364  
0.0  93.25843  0.0  -2.126313  38.810662  -94.111184  20.009678  -17.219727  13.675045  -6.487385  -0.237322  9.208257  6.119612  2.402565  1.105799  -12.019941  -4.709138  -26.466072  -5.578956  19.540191  27.727524  -1.022636  -0.127026  3.339478  -0.150075  -0.139171  1.468466  -0.418492  -0.371138  4.014791  -0.418492  -0.371138  4.014791  -11.507768  21.152141  11.072325  137.039185  48.576645  -161.169326  -24.930381  -7.423492  75.492462  52.147684  -11.870173  17.189827  11.152984  -11.081553  14.062667  37.395514  77.183485  -12.324345  -47.393922  -30.094829  -78.165058  69.555038  6.893619  -9.969473  -19.707996  2.566115  10.100934  -14.825743  1.601158  7.666735  
0.0  93.25843  0.0  -2.186847  37.573267  -94.135526  20.671849  -17.244355  14.283855  -6.206545  -0.536308  8.510463  6.241762  2.421479  1.128889  -13.087687  -5.70285  -26.564004  -5.189482  19.863932  27.880119  -0.512858  -0.211594  3.428492  -0.012985  -0.142265  1.41535  -0.043804  -0.387954  3.868834  -0.043804  -0.387954  3.868834  -11.601566  21.131427  11.045403  138.501286  48.886482  -160.73465  -24.791786  -7.114017  75.037388  52.512071  -11.684486  16.784156  10.951683  -11.151696  14.214725  39.135153  76.703014  -10.871407  -46.92891  -30.040733  -78.69331  69.629328  6.752009  -9.821916  -19.659956  2.60679  10.15125  -14.790564  1.630883  7.705535  
0.0  93.25843  0.0  -2.259162  36.171878  -94.242972  21.066277  -17.15817  14.957932  -5.587899  -0.854826  7.975732  6.504546  2.426216  1.161674  -14.796069  -6.328822  -26.926201  -3.873398  19.370874  28.622432  -0.708151  -0.294762  3.387897  -0.042568  -0.087679  1.336154  -0.121159  -0.237226  3.652409  -0.121159  -0.237226  3.652409  -10.533902  20.818315  11.413467  140.273195  49.245366  -159.992154  -24.766037  -6.782059  74.594608  52.688271  -11.27685  16.307777  11.846878  -11.602344  14.555688  43.470786  76.027841  -7.376172  -46.789816  -29.404811  -78.98001  69.610789  6.887683  -9.440651  -19.050149  2.651263  10.344756  -14.334813  1.668304  7.848961  
0.0  93.25843  0.0  -2.256728  35.002961  -94.230627  21.169602  -16.993651  15.742989  -4.776071  -1.148728  7.261398  6.607224  2.387462  1.136639  -15.759053  -7.070516  -27.026152  -3.040787  19.116108  29.128063  -1.090516  -0.35591  3.462027  0.017277  -0.087797  1.278656  0.042569  -0.240821  3.495028  0.042569  -0.240821  3.495029  -10.615152  20.736174  11.550642  142.145555  49.647349  -159.034648  -24.942361  -6.254043  74.102977  53.001172  -10.756506  15.656532  11.591641  -11.668582  14.608038  46.046729  75.439018  -5.386732  -46.259465  -29.319002  -79.520882  69.578603  6.670258  -9.071599  -18.800673  2.735472  10.397468  -14.149225  1.734124  7.889718  
0.0  93.25843  0.0  -2.263814  33.717927  -94.317542  21.055532  -16.702052  16.666924  -3.492952  -1.484621  6.668631  6.607755  2.35997  1.083022  -16.598385  -7.69463  -27.060812  -2.505064  18.904884  29.670174  -1.434234  -0.433899  3.566129  0.012777  -0.074011  1.217699  0.031189  -0.202886  3.32843  0.031189  -0.202886  3.32843  -10.935682  20.315635  11.500084  144.52985  49.724729  -157.93131  -25.416282  -5.593796  73.629046  53.516016  -10.242362  14.891473  11.747309  -11.842084  14.69133  50.732906  74.570685  -1.56117  -45.303459  -29.743372  -80.322478  70.165637  6.985713  -7.97969  -18.32977  2.843721  10.523028  -13.798328  1.819612  7.984552  
0.0  93.25843  0.0  -2.219373  32.651426  -94.364557  20.807397  -16.456813  17.66773  -2.145234  -1.747459  5.91767  6.438324  2.302066  1.024879  -17.659179  -8.204506  -27.13608  -2.585016  18.945597  30.129307  -1.747565  -0.483296  3.60318  0.019469  -0.078862  1.162145  0.049414  -0.216439  3.176554  0.049414  -0.216439  3.176554  -11.227433  20.284426  11.683713  146.000993  50.276976  -157.230147  -26.055423  -4.974578  73.278681  54.063813  -9.953284  14.066265  11.294404  -11.82522  14.595914  54.101479  73.657326  1.016379  -44.571546  -29.88488  -81.137474  70.151135  6.811173  -7.60243  -17.997688  2.962508  10.63326  -13.551676  1.911258  8.068805  
0.0  93.25843  0.0  -2.265915  31.387186  -94.596866  20.551317  -16.188547  18.771469  -0.860924  -2.03045  5.124251  6.511235  2.220476  1.086236  -18.644452  -8.772984  -26.984064  -3.113383  19.24667  30.483252  -0.715691  -0.876093  3.864324  0.00839  -0.086071  1.114429  0.018962  -0.235595  3.046162  0.018962  -0.235595  3.046162  -11.508011  20.224559  11.842822  147.290014  50.913327  -156.742323  -26.638288  -4.652216  73.090677  54.527212  -10.062404  13.283312  11.053833  -11.903665  14.490677  57.785242  72.577365  3.906019  -43.748021  -30.042534  -82.1561  70.236402  6.664241  -7.286779  -17.555956  3.078875  10.811902  -13.223187  2.00115  8.203544  
